<?xml version="1.0" encoding="utf-8"?>
<!-- Generator: Adobe Illustrator 21.0.0, SVG Export Plug-In . SVG Version: 6.00 Build 0)  -->
<svg version="1.1" id="b7c1940c-0d3d-4d9f-8d2c-ccd57e8a1261"
	 xmlns="http://www.w3.org/2000/svg" xmlns:xlink="http://www.w3.org/1999/xlink" x="0px" y="0px" width="1202px" height="277.1px"
	 viewBox="0 0 1202 277.1" style="enable-background:new 0 0 1202 277.1;" xml:space="preserve">
<style type="text/css">
	.st0{fill:#072B42;}
</style>
<g>
	<path class="st0" d="M175.7,176.7V277c-0.5,0-0.9,0.1-1.3,0.1c-15.4,0-30.9,0-46.3,0c-0.9,0.1-1.7-0.4-1.9-1.2
		c-30.5-64-61-128-91.5-192c-0.1-0.4-0.4-0.7-0.7-0.9v193.8H0V0h312.3v41.2h-85.2c4.4,1,8.8,1.9,13.2,3.1
		c9.5,2.5,18.3,7.1,25.8,13.4c8.9,7.6,15.2,17.7,17.9,29.1c3.3,12.7,3.9,25.6,0.7,38.4c-4.8,19.4-17.2,31.7-36.2,37.4
		c-3.3,1-6.7,1.6-10.1,2.4c0.6,0.2,1.2,0.3,1.8,0.5c9.4,2.9,17.7,8.7,23.4,16.8c5.6,7.9,10.6,16.3,14.8,25
		c11.4,22.9,22.8,45.8,34.2,68.7c0.1,0.2,0.2,0.4,0.3,0.7c-0.5,0-0.9,0.1-1.2,0.1c-10.7,0-21.3,0-32,0c-0.8,0.1-1.5-0.4-1.7-1.1
		c-9.6-20.5-19.3-40.9-29-61.4c-3.6-7.7-8-15.1-12.9-22.1c-6.7-9.4-15.9-14.2-27.2-15.2c-2.3-0.2-4.6-0.3-7-0.3
		c-8.2,0-16.4,0-24.7,0L175.7,176.7z M11.3,30.3h127.1v235.8h26V30.3H301V11H11.3V30.3z M126.7,214.9h0.2V41.3H44
		C71.6,99.3,99.2,157.1,126.7,214.9z M175.8,150.3c0.4,0,0.6,0,0.9,0c10.6,0,21.2,0,31.8,0c6.6,0.1,13.2-0.8,19.5-2.7
		c11-3.5,18.8-10.4,22.3-21.6c2.9-9.2,3.4-19,1.5-28.5c-2.5-13.2-9.9-22.4-22.5-27.4c-6.8-2.6-13.9-3.9-21.2-3.8
		c-10.5-0.1-21.1-0.1-31.6-0.1c-0.3,0-0.5,0.1-0.8,0.1v84H175.8z"/>
	<g>
		<path class="st0" d="M641.3,80.1c15.7,0,30.4-0.3,45,0.2c2.6,0.1,5.7,2.8,7.4,5.2c10,14,15.3,29.9,17.4,46.8
			c3.5,28.8,1,56.8-13.3,82.9c-4.5,8.2-9.7,12.4-19.7,11.5c-12.1-1-24.3-0.3-36.8-0.3L641.3,80.1L641.3,80.1z M649.8,218.1
			c10.6,0,20.3,0.4,30-0.2c3.1-0.2,7.8-2.5,8.8-5c4.8-11.7,10.2-23.5,12.4-35.8c5.1-28.7,2.8-56.8-12.3-82.7c-1.2-2.1-3.6-5-5.5-5.1
			c-11-0.5-22-0.2-33.4-0.2V218.1z"/>
		<path class="st0" d="M788.2,226.5V80.2c15.6,0,30.8-0.2,45.9,0.2c2.3,0.1,5,2.9,6.6,5.2c9.8,13.8,15.1,29.5,17.2,46.1
			c3.7,29.2,1.2,57.4-13.3,83.8c-4.3,7.8-9.2,12.2-19.1,11.3C813.4,225.7,801.1,226.5,788.2,226.5 M796.9,218.1
			c9.6,0,18.8-0.4,27.9,0.1c6.1,0.4,9.4-2,12.2-7.1c9.6-17.4,12.9-36.3,13.1-55.7c0.3-21.6-2.9-42.8-14.8-61.6
			c-1.3-2-3.7-4.7-5.7-4.7c-10.8-0.5-21.5-0.2-32.7-0.2V218.1z"/>
		<path class="st0" d="M1032.1,152.1h-53.6V226c-3.1,0.2-5.4,0.4-7.9,0.6c-0.3-1.4-0.8-2.4-0.8-3.5c0-40-0.1-79.9,0.1-119.9
			c0-2.9,1.3-6.4,3.2-8.7c16.1-20.1,47.8-20.2,64.1-0.3c1.6,2,3.1,4.8,3.1,7.2c0.2,41.3,0.1,82.6,0.1,124.5c-2.7,0.3-5,0.5-8.4,0.8
			v-74.6H1032.1z M1031.9,142.9c0-13.4,0.1-26.3-0.1-39.3c-0.1-2.1-1.7-4.5-3.3-6.2c-12.1-12.9-34.7-12.8-46.7,0.3
			c-1.4,1.5-3.2,3.5-3.3,5.4c-0.3,13.2-0.2,26.4-0.2,39.8H1031.9z"/>
		<path class="st0" d="M463.4,153.2c0-16.3-0.3-32.6,0.2-48.9c0.1-4.1,2.1-9,4.9-12.1c12.9-14,33.6-17,49.9-7.8
			c10,5.6,16,12.7,15.6,25.9c-1,30.4-0.1,60.9-0.6,91.3c-0.1,4.4-2.2,9.6-5.1,12.8c-12.7,14.1-34.3,17.1-50.7,7.5
			c-9.3-5.5-15.6-12.3-14.6-24.7C464.3,182.7,463.4,167.9,463.4,153.2 M471.8,153.9c0,14.1,0.8,28.3-0.3,42.4
			c-0.8,10.4,4.4,16,12.5,19.5c12,5.2,23.8,4.5,34.7-3.5c4.7-3.4,6.9-7.6,6.8-13.8c-0.3-29.3-0.6-58.7,0.1-88
			c0.2-9.5-4-14.7-11.2-18.8c-11.8-6.7-28.5-4.9-37.9,4.5c-2.5,2.5-4.4,6.9-4.6,10.5C471.5,122.4,471.8,138.2,471.8,153.9"/>
		<path class="st0" d="M623.5,153.1c0,16.3,0.3,32.6-0.2,48.9c-0.1,4.1-2,9.1-4.8,12.2c-16.4,18.1-45.3,17.8-61.3-0.6
			c-2.2-2.6-3.9-6.7-3.9-10.1c-0.3-33.4-0.3-66.8,0-100.3c0-3.2,1.5-7,3.5-9.4c12.1-14.6,33.5-18.6,50.3-9.8
			c10.7,5.6,17.9,12.9,16.7,26.8C622.6,124.7,623.5,138.9,623.5,153.1 M615.1,153.8c0-14.7-0.5-29.4,0.2-44
			c0.4-8.4-3.3-13.2-9.7-17.2c-11.6-7.2-28-6.6-38,2.5c-3.1,2.9-5.8,8.1-5.8,12.3c-0.5,29.6-0.3,59.2-0.3,88.8
			c0,10.9,3.3,17.2,13.7,20c7.5,2,16.2,2.3,23.7,0.6c9.6-2.1,17.4-7.9,16.4-21.5C614.3,181.5,615.1,167.6,615.1,153.8"/>
		<path class="st0" d="M443.9,97.7c-5,3.7-8.3,2.9-12.3-1.1c-9.5-9.5-24.1-11.6-36.3-5.8c-8.4,3.9-13.4,9.4-13.1,20
			c0.7,29.4,0,58.7,0.5,88.1c0.1,4.2,2.5,9.6,5.7,12.4c11.4,10.5,31.3,10.1,42.5-0.5c2.7-2.6,4.6-7.2,4.9-11.1
			c0.8-8.1,0.2-16.3,0.2-24.5c0-13.9-6.1-21.2-19.9-23.7c-1.8-0.3-3.7-0.4-6.1-0.7c-0.2-2.7-0.3-5-0.5-7.3c1.2-0.4,2-1,2.6-0.9
			c6.2,1.8,12.8,2.8,18.4,5.8c9.3,4.9,15.5,12,14.1,24.1c-1.1,9.7,0.3,19.6-0.5,29.3c-0.3,4.4-2.2,9.6-5.2,12.8
			c-15.1,16.3-40.8,17-57.4,2.3c-5.1-4.5-7.8-9.6-7.7-16.9c0.4-31.5,0.1-63.1,0.2-94.6c0-2.9-0.1-6.4,1.4-8.5
			c8.4-11.9,20.1-17.8,34.9-17.5C424.6,79.8,435.5,86.2,443.9,97.7"/>
		<path class="st0" d="M948.7,88.9c-10.6,0-20.1-0.3-29.5,0.1c-5.9,0.3-12,0.8-17.5,2.7c-10.3,3.6-13.6,9.3-13.6,20.3
			c0,9.5,0.1,19,0.2,28.5c0,0.5,0.4,1,0.9,2.3h43v8.4h-43.6v66.5h61.2c0.3,3.1,0.5,5.4,0.8,8.3h-70.9v-14.8v-97.9
			c0-18.2,9.7-30.2,28-32c13.1-1.3,26.5-0.3,40.4-0.3C948.3,83,948.4,85.3,948.7,88.9"/>
		<path class="st0" d="M1194,107.7c-2.3-10.6-10.8-17.8-22.5-19.6c-12.1-1.8-26.6,3.8-31.1,12.1c-3,5.5-0.6,20.6,3.9,24.9
			c17.2,16.2,34.3,32.6,51.7,48.6c3.9,3.6,6.2,7.3,5.5,12.7c-0.3,2.1,0,4.4,0,6.5c0,21.6-13.4,34.8-35.3,34.6
			c-11.9-0.1-22.6-4.2-30.4-13.4c-2.9-3.5-4.1-8.5-6.6-14.3h9.5c2.3,17.5,26.9,22.7,41.1,16.5c15.6-6.8,19.2-27.7,6.8-39.4
			c-17-16.1-34.1-32-50.8-48.4c-2.5-2.5-3.2-6.9-4.6-10.4c-0.3-0.7,0.1-1.6-0.1-2.4c-1.9-13.6,1.4-24.6,14.7-31.2
			c14.2-7.1,28.3-7.3,41.9,1c4.7,2.9,9,7.1,12.3,11.6C1204.3,103.1,1201.6,107.7,1194,107.7"/>
		<path class="st0" d="M1129.3,218.1v8.1c-13.9,0-27.5,0.7-40.9-0.3c-6.1-0.5-12.4-3.8-17.9-7c-8.6-4.9-12.5-12-12.3-22.8
			c0.7-36.1,0.2-72.3,0.3-108.4c0-3.2-1.5-7.6,4.4-7.6c6,0.1,4.2,4.6,4.3,7.7c0.1,35,0.1,70.1,0.1,105.2c0,14.5,5.8,22.1,20.4,23.9
			c11.3,1.4,22.8,0.9,34.1,1.2C1124,218.2,1126.2,218.1,1129.3,218.1"/>
	</g>
</g>
</svg>
